<?xml version="1.0" standalone="no"?>
<!DOCTYPE svg PUBLIC "-//W3C//DTD SVG 20010904//EN"
 "http://www.w3.org/TR/2001/REC-SVG-20010904/DTD/svg10.dtd">
<svg version="1.0" xmlns="http://www.w3.org/2000/svg"
 width="3478.000000pt" height="3163.000000pt" viewBox="0 0 3478.000000 3163.000000"
 preserveAspectRatio="xMidYMid meet">

<g transform="translate(0.000000,3163.000000) scale(0.100000,-0.100000)"
fill="#000000" stroke="none">
<path d="M14530 26825 l0 -3615 1748 0 c1106 0 1798 4 1887 10 559 42 1029
192 1425 456 457 304 745 741 815 1237 19 136 19 402 -1 534 -54 370 -203 671
-454 924 -278 279 -640 459 -1120 554 -47 9 -89 21 -94 25 -11 10 5 20 204
123 588 303 894 598 1028 992 49 142 72 294 79 510 6 209 -2 301 -42 459 -99
388 -375 731 -791 983 -321 194 -746 330 -1209 388 -253 31 -453 35 -1957 35
l-1518 0 0 -3615z m2555 3125 c425 -31 757 -113 1039 -255 370 -187 579 -457
668 -860 20 -94 18 -468 -4 -571 -60 -274 -162 -469 -342 -650 -235 -236 -539
-371 -928 -413 -61 -7 -415 -11 -938 -11 l-840 0 0 1385 0 1385 603 0 c331 0
665 -5 742 -10z m320 -3225 c311 -27 534 -78 778 -177 478 -194 758 -503 877
-966 49 -196 65 -504 35 -692 -99 -605 -613 -999 -1455 -1114 -220 -30 -400
-36 -1147 -36 l-753 0 0 1500 0 1500 748 0 c581 0 785 -3 917 -15z"/>
<path d="M5533 27418 c-32 -51 -87 -138 -122 -193 -34 -55 -104 -165 -155
-245 -222 -347 -333 -522 -398 -625 -38 -60 -111 -175 -162 -255 -89 -139
-441 -693 -590 -927 -39 -62 -91 -144 -116 -183 -25 -38 -117 -184 -205 -322
-88 -139 -179 -282 -202 -318 -82 -127 -157 -246 -188 -295 -18 -27 -79 -124
-137 -215 -58 -91 -176 -277 -263 -415 -87 -137 -186 -293 -220 -345 -59 -92
-444 -697 -495 -780 -14 -22 -51 -81 -83 -130 -32 -50 -55 -95 -52 -100 3 -4
89 -61 191 -125 l187 -118 17 23 c22 29 139 213 480 750 91 143 197 311 237
373 40 61 91 141 113 177 23 36 58 92 79 125 38 60 245 386 305 480 18 28 63
100 101 160 38 61 70 112 72 115 2 2 12 -1 21 -7 53 -34 544 -346 697 -443 99
-62 233 -148 297 -189 118 -77 149 -97 568 -361 129 -82 240 -153 247 -159 7
-6 28 -18 47 -28 20 -9 36 -20 36 -25 0 -4 4 -8 9 -8 5 0 31 -15 58 -32 26
-18 84 -55 127 -83 191 -120 487 -308 556 -352 40 -26 88 -57 106 -68 17 -11
110 -69 205 -130 276 -176 407 -259 514 -326 55 -34 150 -95 210 -134 93 -61
320 -205 1043 -664 65 -41 252 -159 417 -264 165 -105 336 -214 380 -242 144
-93 166 -106 173 -101 6 3 320 494 452 706 14 22 62 98 108 170 45 72 82 134
82 138 0 7 -76 57 -291 192 -63 39 -184 116 -269 170 -85 54 -218 138 -295
186 -77 48 -142 91 -145 94 -3 3 -68 46 -145 94 -77 48 -210 132 -295 186 -85
54 -220 140 -300 190 -80 51 -210 134 -290 185 -80 52 -172 111 -205 131 -135
85 -505 320 -571 363 -39 25 -103 66 -143 91 -39 25 -100 63 -134 85 -34 22
-109 70 -167 106 -347 219 -424 268 -510 324 -52 34 -183 117 -290 185 -107
68 -229 145 -270 171 -41 26 -115 73 -165 105 -49 31 -130 83 -180 115 -49 32
-267 171 -484 308 -217 137 -401 254 -410 260 -9 6 -42 27 -73 47 -32 19 -58
39 -58 44 0 8 399 642 544 865 29 44 160 250 292 457 131 208 282 445 334 528
52 82 121 190 154 240 32 50 59 98 60 107 1 10 -38 41 -104 84 -140 91 -266
169 -272 169 -3 0 -32 -42 -65 -92z"/>
<path d="M30310 25473 c-8 -3 -132 -52 -275 -109 -143 -56 -307 -120 -365
-142 -58 -22 -247 -96 -420 -165 -325 -129 -367 -146 -930 -367 -184 -72 -384
-151 -445 -175 -60 -24 -209 -82 -330 -130 -583 -229 -667 -262 -1365 -537
-146 -58 -377 -149 -515 -203 -335 -131 -828 -325 -1110 -437 -126 -50 -293
-115 -370 -145 -77 -30 -160 -63 -185 -73 -25 -10 -118 -47 -207 -81 -90 -35
-163 -67 -163 -72 0 -8 48 -132 181 -467 34 -85 80 -204 104 -265 23 -60 86
-220 140 -355 53 -135 121 -308 150 -385 30 -77 62 -160 73 -185 11 -25 43
-106 72 -180 29 -74 85 -218 125 -320 191 -483 477 -1209 660 -1675 292 -743
330 -835 340 -831 5 2 100 39 210 82 110 42 202 79 205 81 2 2 -1 16 -7 31 -6
15 -49 126 -96 247 -47 121 -100 254 -117 295 -17 41 -53 131 -79 200 -27 69
-90 231 -141 360 -213 538 -280 710 -315 800 -20 52 -70 178 -110 280 -40 102
-132 336 -205 520 -72 184 -171 436 -220 560 -49 124 -91 231 -92 239 -3 15
51 38 497 213 127 50 250 98 275 108 25 10 108 43 185 73 175 68 344 135 370
147 11 5 67 27 125 49 135 52 512 200 855 336 149 59 333 131 410 160 77 29
173 67 214 84 80 34 91 36 91 21 0 -9 82 -225 142 -370 16 -41 65 -165 108
-275 77 -197 165 -423 340 -865 143 -361 317 -804 323 -822 4 -10 11 -18 17
-18 25 0 420 163 420 173 0 7 -10 32 -21 57 -12 25 -33 79 -49 120 -15 41 -80
208 -144 370 -111 280 -148 374 -302 767 -36 92 -103 263 -149 378 -46 116
-101 257 -123 315 -23 58 -61 155 -86 215 -25 61 -46 117 -46 125 0 9 26 25
68 42 37 15 218 86 402 158 184 73 452 178 595 234 143 57 384 152 535 211
151 59 387 152 524 206 137 55 256 100 264 101 10 2 22 -14 33 -42 51 -126
258 -653 305 -775 29 -77 71 -183 92 -235 21 -52 53 -131 70 -175 47 -121 211
-539 322 -820 201 -508 345 -874 502 -1275 44 -113 81 -207 83 -209 8 -8 425
163 425 175 0 6 -14 45 -31 85 -16 41 -43 108 -59 149 -15 41 -76 197 -135
345 -59 149 -131 333 -160 410 -30 77 -62 160 -73 185 -11 25 -43 106 -72 180
-55 142 -149 381 -330 840 -118 298 -287 729 -455 1155 -469 1194 -512 1300
-527 1302 -7 1 -20 -1 -28 -4z"/>
<path d="M9825 14258 c-22 -11 -77 -43 -123 -69 -45 -27 -85 -49 -87 -49 -2 0
-45 -25 -95 -55 -50 -30 -93 -55 -95 -55 -2 0 -28 -14 -57 -31 -29 -17 -118
-68 -198 -114 -80 -45 -226 -128 -325 -185 -160 -91 -407 -232 -505 -288 -19
-11 -143 -81 -275 -157 -132 -75 -258 -147 -280 -160 -22 -12 -105 -60 -185
-105 -80 -46 -165 -94 -190 -108 -25 -14 -151 -86 -280 -160 -129 -74 -255
-146 -280 -160 -65 -36 -853 -486 -1060 -605 -96 -55 -195 -111 -220 -125 -25
-14 -135 -77 -245 -140 -110 -63 -217 -124 -238 -136 -21 -11 -46 -25 -55 -31
-10 -5 -65 -37 -122 -69 -58 -33 -130 -74 -160 -92 -55 -32 -70 -41 -210 -119
-103 -57 -424 -241 -483 -276 -27 -16 -50 -29 -51 -29 -2 0 -23 35 -48 78 -82
140 -251 436 -293 512 -51 91 -50 88 -218 382 -75 130 -150 263 -168 295 -17
32 -46 83 -64 113 -43 72 -146 252 -180 315 -16 28 -39 67 -52 87 -12 21 -23
40 -23 42 0 3 -22 43 -48 88 -27 46 -84 145 -126 221 -43 75 -79 137 -81 137
-2 0 -26 -13 -52 -28 -26 -16 -55 -31 -63 -35 -8 -5 -24 -13 -35 -20 -11 -7
-71 -41 -133 -76 -61 -35 -112 -66 -112 -70 0 -9 28 -57 245 -436 75 -132 153
-269 173 -305 19 -36 38 -69 42 -75 8 -10 215 -371 273 -475 49 -89 185 -327
247 -435 62 -107 712 -1247 1214 -2130 170 -297 331 -580 360 -630 29 -49 183
-318 342 -597 159 -280 294 -508 299 -508 6 0 62 29 124 65 63 36 115 65 117
65 11 0 153 93 150 98 -16 30 -224 393 -306 537 -57 99 -149 261 -205 360
-103 181 -451 791 -661 1158 -63 109 -114 202 -114 207 0 8 149 96 310 183 30
17 66 38 80 47 14 9 50 31 80 47 30 17 120 68 200 113 80 46 161 92 180 103
84 47 1115 635 1205 687 107 62 571 327 645 368 25 14 101 57 170 97 69 40
152 87 185 105 33 18 119 67 190 108 72 42 164 94 205 118 41 23 127 71 190
107 63 36 169 96 235 135 66 38 158 90 205 117 47 26 114 65 150 85 36 21 160
91 275 157 116 66 323 184 460 263 138 79 270 154 295 168 55 31 604 344 607
346 1 1 -100 179 -224 396 -261 457 -280 492 -330 583 -20 37 -42 67 -48 67
-5 -1 -28 -10 -50 -22z"/>
<path d="M24122 13839 c-266 -17 -544 -91 -775 -208 -122 -62 -305 -175 -352
-218 -11 -10 -53 -44 -92 -76 -371 -300 -807 -890 -991 -1337 -336 -822 -225
-1586 312 -2138 208 -214 464 -381 707 -463 406 -136 947 -91 1523 125 275
104 477 197 1182 547 302 151 568 282 590 292 368 168 687 271 959 308 124 17
364 17 450 0 89 -18 223 -64 300 -104 33 -17 62 -34 65 -37 3 -3 30 -21 61
-42 31 -20 84 -62 118 -94 500 -463 385 -1359 -259 -2014 -161 -165 -300 -272
-465 -360 -44 -24 -84 -46 -90 -50 -18 -12 -192 -80 -272 -106 -278 -89 -628
-111 -943 -59 -77 12 -263 57 -376 90 -25 8 -16 36 -115 -369 -38 -159 -68
-294 -66 -300 6 -16 246 -72 410 -97 172 -26 474 -36 630 -20 341 36 688 158
967 341 326 214 590 474 861 845 429 588 648 1180 649 1757 0 495 -159 906
-499 1285 -75 85 -251 237 -354 306 -144 97 -325 174 -497 212 -102 23 -457
32 -599 15 -319 -36 -716 -154 -1108 -329 -51 -22 -134 -59 -183 -81 -50 -22
-92 -40 -94 -40 -6 0 -452 -215 -886 -427 -285 -140 -545 -263 -553 -263 -3 0
-34 -13 -69 -29 -133 -60 -404 -153 -562 -191 -499 -123 -827 -61 -1089 205
-338 342 -389 864 -135 1370 71 140 171 290 288 430 38 46 199 206 255 254
135 115 360 241 541 304 223 77 395 102 662 94 215 -6 371 -29 572 -83 74 -20
145 -38 157 -41 19 -5 23 2 37 69 34 159 117 590 114 593 -19 15 -289 82 -427
105 -100 17 -390 43 -426 38 -5 0 -66 -4 -133 -9z"/>
<path d="M16219 10753 c-49 -106 -164 -349 -270 -572 -44 -90 -79 -165 -79
-167 0 -2 -25 -56 -56 -121 -31 -65 -73 -154 -94 -198 -21 -44 -55 -118 -77
-165 -42 -89 -94 -199 -170 -360 -25 -52 -58 -122 -73 -155 -15 -33 -54 -114
-85 -180 -54 -115 -83 -175 -159 -337 -19 -40 -59 -125 -89 -188 -105 -223
-215 -456 -250 -530 -19 -41 -78 -167 -132 -280 -87 -184 -335 -711 -445 -945
-23 -49 -73 -155 -111 -234 -38 -79 -69 -145 -69 -147 0 -1 -36 -78 -80 -170
-44 -91 -80 -168 -80 -169 0 -1 -30 -65 -66 -141 -37 -77 -117 -247 -179 -379
-62 -132 -139 -294 -170 -360 -32 -66 -72 -151 -90 -190 -43 -93 -185 -393
-247 -525 -48 -99 -73 -153 -152 -322 -18 -40 -56 -120 -84 -178 -64 -134
-132 -282 -132 -286 0 -2 136 -4 303 -4 l303 0 24 53 c13 28 55 117 93 197 38
80 85 179 104 220 19 41 56 118 80 170 25 52 60 127 78 165 18 39 58 124 90
190 31 66 72 152 90 190 18 39 59 124 90 190 32 66 75 158 97 205 22 47 64
135 93 195 29 61 69 146 90 190 21 44 69 145 107 225 38 80 77 162 85 183 l15
37 1554 0 c952 0 1554 -4 1554 -9 0 -5 189 -423 421 -928 231 -505 477 -1043
547 -1195 l127 -278 613 0 c385 0 612 4 612 10 0 5 -27 66 -60 136 -33 69 -60
128 -60 129 0 2 -15 36 -34 77 -18 40 -74 161 -124 268 -49 107 -153 332 -230
500 -77 168 -158 345 -181 393 -23 49 -41 90 -41 92 0 2 -22 50 -49 107 -26
56 -72 155 -101 218 -29 63 -81 176 -115 250 -74 159 -78 169 -292 635 -91
198 -185 402 -209 453 -24 51 -44 95 -44 96 0 2 -27 61 -60 130 -33 70 -60
128 -60 130 0 2 -20 47 -45 100 -25 53 -65 139 -90 192 -25 53 -45 98 -45 100
0 2 -27 60 -60 130 -33 69 -60 128 -60 130 0 1 -18 42 -41 91 -39 84 -111 239
-294 638 -46 99 -102 220 -124 268 -23 49 -41 90 -41 91 0 2 -23 53 -51 112
-28 60 -75 162 -105 227 -30 64 -78 170 -108 235 -30 64 -77 166 -105 226 -28
59 -51 110 -51 112 0 1 -18 42 -41 91 -23 48 -90 194 -149 323 -59 129 -156
339 -214 465 l-105 230 -151 3 -151 3 -40 -88z m7 -1864 c234 -510 562 -1223
608 -1322 25 -55 46 -101 46 -103 0 -2 16 -36 36 -76 19 -40 48 -102 63 -138
16 -36 45 -101 66 -145 50 -108 137 -296 173 -375 17 -36 64 -139 106 -230 42
-90 76 -165 76 -167 0 -2 -599 -3 -1331 -3 -732 0 -1329 3 -1327 8 2 4 13 27
25 52 11 25 44 95 73 155 29 61 90 189 135 285 46 96 106 225 135 285 29 61
67 142 85 180 18 39 92 196 165 350 73 154 150 318 172 365 38 80 148 314 253
535 26 55 65 138 87 185 22 47 63 132 90 190 27 58 66 140 85 183 21 44 40 74
45 69 5 -5 65 -132 134 -283z"/>
</g>
</svg>
