<?xml version="1.0" standalone="no"?>
<!DOCTYPE svg PUBLIC "-//W3C//DTD SVG 20010904//EN"
 "http://www.w3.org/TR/2001/REC-SVG-20010904/DTD/svg10.dtd">
<svg version="1.0" xmlns="http://www.w3.org/2000/svg"
 width="700.000000pt" height="250.000000pt" viewBox="0 0 700.000000 250.000000"
 preserveAspectRatio="xMidYMid meet">

<g transform="translate(0.000000,250.000000) scale(0.100000,-0.100000)"
fill="#ffffff" stroke="none">
<path d="M2770 1814 c-52 -10 -135 -60 -167 -102 -87 -114 -62 -260 61 -353
26 -20 107 -67 179 -105 197 -103 263 -177 243 -271 -14 -61 -84 -111 -170
-120 -111 -11 -221 49 -272 149 -20 38 -29 48 -42 43 -9 -4 -29 -11 -44 -17
l-27 -10 21 -41 c37 -75 77 -115 143 -148 53 -26 80 -32 152 -36 236 -14 396
110 381 293 -9 104 -71 163 -303 290 -209 114 -245 148 -245 235 0 35 6 48 38
79 58 58 134 73 228 45 64 -19 113 -60 148 -126 16 -30 30 -55 31 -57 2 -2 19
5 39 14 43 21 45 37 7 95 -67 104 -140 142 -281 145 -52 1 -106 0 -120 -2z"/>
<path d="M4052 1773 c-12 -27 -117 -252 -235 -500 l-215 -453 42 0 41 0 77
163 76 162 212 0 213 0 73 -160 73 -160 85 -3 85 -3 -80 173 c-44 95 -148 320
-231 501 -132 287 -154 327 -173 327 -17 0 -27 -11 -43 -47z m178 -559 c0 -2
-81 -4 -180 -4 -99 0 -180 2 -180 4 0 2 36 79 81 172 45 93 85 180 90 193 9
22 20 2 99 -169 50 -106 90 -195 90 -196z"/>
<path d="M30 1311 l0 -491 233 0 c127 0 261 5 296 11 166 27 264 124 263 261
0 104 -62 188 -160 218 -20 6 -44 14 -52 16 -9 3 2 14 30 30 97 55 130 104
130 194 0 76 -19 119 -73 165 -83 71 -121 79 -409 83 l-258 4 0 -491z m454
398 c30 -11 66 -33 80 -49 74 -89 51 -214 -49 -272 -36 -20 -56 -23 -182 -26
l-143 -4 0 186 0 186 120 0 c96 0 130 -4 174 -21z m53 -442 c77 -40 108 -91
108 -178 0 -75 -16 -106 -75 -146 -51 -35 -94 -43 -242 -43 l-138 0 0 201 0
201 148 -4 c136 -4 151 -6 199 -31z"/>
<path d="M1370 1310 l0 -490 340 0 340 0 0 30 0 30 -255 0 -255 0 0 220 0 220
170 0 170 0 0 35 0 35 -170 0 -170 0 0 175 0 175 255 0 255 0 0 30 0 30 -340
0 -340 0 0 -490z"/>
<path d="M4900 1770 l0 -30 175 0 175 0 0 -460 0 -460 85 0 85 0 0 460 0 460
175 0 175 0 0 30 0 30 -435 0 -435 0 0 -30z"/>
<path d="M6110 1770 l0 -30 180 0 180 0 0 -460 0 -460 80 0 80 0 0 460 0 460
180 0 180 0 0 30 0 30 -440 0 -440 0 0 -30z"/>
</g>
</svg>