<svg id="Layer_1" data-name="Layer 1" xmlns="http://www.w3.org/2000/svg" viewBox="0 0 843.95 853.46"><defs><style>.cls-1{isolation:isolate;}.cls-2{fill:#f7318a;}</style></defs><g class="cls-1"><path class="cls-2" d="M513.93,167.91H602.3a127.05,127.05,0,0,1,32.05,3.81,82.17,82.17,0,0,1,25.11,10.81,52.87,52.87,0,0,1,16.3,16.71,41,41,0,0,1,5.84,21.52,61.65,61.65,0,0,1-1.85,15.72,35.42,35.42,0,0,1-6.49,12.89,55,55,0,0,1-12.32,11.17,136.81,136.81,0,0,1-19.36,10.72V272a79.51,79.51,0,0,1,21.12,6.17,55.2,55.2,0,0,1,16.21,11.17,47.44,47.44,0,0,1,10.38,15.72,52.13,52.13,0,0,1,3.61,19.79,49,49,0,0,1-5.47,22.8A55.46,55.46,0,0,1,672,366.08a77.18,77.18,0,0,1-24.17,12.35A103.18,103.18,0,0,1,616.2,383H513.93Zm36.86,96.81h46.88a58.25,58.25,0,0,0,19.73-3.09A42.28,42.28,0,0,0,632,253.1a35.82,35.82,0,0,0,9-12.9A42.1,42.1,0,0,0,644,224a40.13,40.13,0,0,0-3.61-17.16,33.44,33.44,0,0,0-11.31-13.17q-7.68-5.44-19.54-8.45t-28.35-3H550.79Zm0,102.45h39.84a113.81,113.81,0,0,0,27.88-3q11.78-3,19.46-8.45a34.69,34.69,0,0,0,11.39-13,37.61,37.61,0,0,0,3.71-16.81A52.33,52.33,0,0,0,649.73,307a37.46,37.46,0,0,0-10.84-15.16q-7.5-6.45-19.64-10.17T589.52,278H550.79Z" transform="translate(-168.46 -167.91)"/></g><g class="cls-1"><path class="cls-2" d="M1012.41,465.5l-12.15,6.62-55.54-102-67.77,37,37.11,68.17-12.15,6.63L864.8,413.71l-85,46.38,55.54,102-12.15,6.63L749.9,434.19,939.16,331Z" transform="translate(-168.46 -167.91)"/></g><g class="cls-1"><path class="cls-2" d="M786.2,702.69a60.61,60.61,0,0,0-6.5,14.88A46,46,0,0,0,777.88,733a34.32,34.32,0,0,0,3.86,14,27.49,27.49,0,0,0,10.45,10.74A30.93,30.93,0,0,0,810,762.46a60.9,60.9,0,0,0,19.26-4.24,132,132,0,0,0,20.4-10.16q10.47-6.31,21.31-13.06t21.87-12.73a112.68,112.68,0,0,1,22-9.21,65.86,65.86,0,0,1,21.76-2.73A45.06,45.06,0,0,1,958,717.24a55.81,55.81,0,0,1,17.23,15.93,51.69,51.69,0,0,1,8.55,21.39,65.36,65.36,0,0,1-1.23,25.53q-3.18,13.65-12.13,28.34Q954.2,835,933.8,843.73t-45.31,3L891,826.15a86.18,86.18,0,0,0,20,2.26,56.89,56.89,0,0,0,18.38-3.16,52.9,52.9,0,0,0,16.25-9.31,64.31,64.31,0,0,0,13.62-16.2,53,53,0,0,0,7-17,39,39,0,0,0,.33-14.94,30.55,30.55,0,0,0-4.94-12.07,28.87,28.87,0,0,0-8.8-8.35,25.46,25.46,0,0,0-16.1-3.57A64.23,64.23,0,0,0,918,749a170.14,170.14,0,0,0-20.74,10.71q-10.77,6.47-21.94,13.22t-22.58,12.84a130.93,130.93,0,0,1-22.61,9.57,67.35,67.35,0,0,1-21.84,3.23A40.79,40.79,0,0,1,788,792.42a58.87,58.87,0,0,1-18-16.74,54.76,54.76,0,0,1-9.17-22.84q-2.09-12.72,1.4-27.91t13.59-31.79a105.82,105.82,0,0,1,17.65-22.3,73,73,0,0,1,19.92-13.58,65.59,65.59,0,0,1,22-5.61,89.71,89.71,0,0,1,24.18,1.54l-3.43,21.06q-21.84-5.21-40.24,2.37T786.2,702.69Z" transform="translate(-168.46 -167.91)"/></g><g class="cls-1"><path class="cls-2" d="M603.24,1021.37,493.44,804.44l37.43-1.1,35.68,70.76,93.94-2.77L693,798.57l18.53-.55L612.32,1021.1Zm51.18-135.86-80.78,2.38L616,971.72Z" transform="translate(-168.46 -167.91)"/></g><g class="cls-1"><path class="cls-2" d="M181.85,736l11.6-7.46,42.86,67L405.36,686.83l19.88,31.08-169,108.68,42.86,67-11.6,7.45Z" transform="translate(-168.46 -167.91)"/></g><g class="cls-1"><path class="cls-2" d="M257.24,313.14l12.31,6.26-36,70.84L412.9,481.49l-16.72,32.86L216.8,423.11l-36,70.84-12.3-6.26Z" transform="translate(-168.46 -167.91)"/></g></svg>