<svg id="Layer_1" data-name="Layer 1" xmlns="http://www.w3.org/2000/svg" viewBox="0 0 1190.12 1184.05"><defs><style>.cls-1{font-size:372px;fill:#fff;font-family:KhmerMN, Khmer MN;}</style></defs><text class="cls-1" transform="translate(486.32 382.97) scale(1.02 1)">B</text><text class="cls-1" transform="matrix(0.87, 0.54, -0.53, 0.85, 667.04, 390.39)"> </text><text class="cls-1" transform="matrix(0.49, 0.9, -0.88, 0.48, 736.64, 409.83)">E</text><text class="cls-1" transform="translate(809.36 553.62) rotate(92.18) scale(1.02 1)"> </text><text class="cls-1" transform="matrix(-0.53, 0.87, -0.86, -0.52, 824.24, 623.41)">S</text><text class="cls-1" transform="matrix(-0.88, 0.51, -0.5, -0.86, 745.35, 748.16)"> </text><text class="cls-1" transform="matrix(-1.02, 0.03, -0.03, -1, 712.25, 798)">A</text><text class="cls-1" transform="matrix(-0.88, -0.52, 0.51, -0.86, 526.88, 794.93)"> </text><text class="cls-1" transform="matrix(-0.55, -0.86, 0.84, -0.54, 471.5, 790.24)">T</text><text class="cls-1" transform="matrix(-0.01, -1.02, 1, -0.01, 382.87, 640.08)"> </text><text class="cls-1" transform="translate(357.29 590.81) rotate(-63.04) scale(1.02 1)">T</text><text class="cls-1" transform="matrix(0.87, -0.53, 0.52, 0.86, 442.22, 438.31)"> </text></svg>